Coordinates
version=1
nRows=16
nColumns=63
inDegrees=yes

Units are S.I. units (second, meters, Newtons, ...)
If the header above contains a line with 'inDegrees', this indicates whether rotational values are in degrees (yes) or radians (no).

endheader
time	pelvis_tilt	pelvis_list	pelvis_rotation	pelvis_tx	pelvis_ty	pelvis_tz	hip_flexion_r	hip_adduction_r	hip_rotation_r	knee_angle_r	knee_angle_r_beta	ankle_angle_r	subtalar_angle_r	mtp_angle_r	hip_flexion_l	hip_adduction_l	hip_rotation_l	knee_angle_l	knee_angle_l_beta	ankle_angle_l	subtalar_angle_l	mtp_angle_l	L5_S1_Flex_Ext	L5_S1_Lat_Bending	L5_S1_axial_rotation	L4_L5_Flex_Ext	L4_L5_Lat_Bending	L4_L5_axial_rotation	L3_L4_Flex_Ext	L3_L4_Lat_Bending	L3_L4_axial_rotation	L2_L3_Flex_Ext	L2_L3_Lat_Bending	L2_L3_axial_rotation	L1_L2_Flex_Ext	L1_L2_Lat_Bending	L1_L2_axial_rotation	L1_T12_Flex_Ext	L1_T12_Lat_Bending	L1_T12_axial_rotation	Abs_r3	Abs_r2	Abs_r1	Abs_t1	Abs_t2	neck_flexion	neck_bending	neck_rotation	arm_flex_r	arm_add_r	arm_rot_r	elbow_flex_r	pro_sup_r	wrist_flex_r	wrist_dev_r	arm_flex_l	arm_add_l	arm_rot_l	elbow_flex_l	pro_sup_l	wrist_flex_l	wrist_dev_l
1.383333	1.530613	-6.608809	104.590917	0.274482	0.922053	0.619792	1.706189	3.658513	-14.572255	14.406950	0.251449	35.684654	3.243658	0.000000	2.808866	-4.805606	7.826902	10.631826	0.185560	42.793624	8.974906	0.000000	-0.173036	0.453228	-1.432798	-0.321345	0.602794	-1.522348	-0.284280	1.101979	-1.522348	-0.197763	1.101979	-1.253698	-0.160681	0.924223	-1.164148	-0.098873	0.702051	-1.074598	-1.235977	5.127009	-7.968791	0.000000	0.000000	18.148127	-1.910362	-6.810568	2.974697	-12.979486	19.877731	64.550114	86.897229	-13.588770	7.157966	-0.376420	-9.786076	16.624902	62.502489	85.497657	-7.225469	-6.410335
1.400000	1.425383	-6.680338	105.348102	0.274555	0.922626	0.622691	2.048258	3.760848	-14.237752	14.393691	0.251217	35.120024	0.945209	0.000000	3.028564	-4.838901	6.810460	10.292652	0.179641	42.840393	10.721388	0.000000	-0.181852	0.408405	-1.578325	-0.337717	0.543179	-1.676970	-0.298764	0.992997	-1.676970	-0.207839	0.992997	-1.381034	-0.168868	0.832820	-1.282389	-0.103910	0.632620	-1.183744	-1.298950	4.619962	-8.778168	0.000000	0.000000	18.135331	-2.736071	-7.217819	3.071658	-13.328838	20.096970	64.440545	88.495869	-14.910220	4.235911	-0.439488	-10.046674	15.352522	62.162094	86.213725	-8.667447	-6.507266
1.416667	1.241441	-6.704561	105.930432	0.274851	0.923120	0.625167	2.233094	3.807855	-13.693032	14.270312	0.249064	34.567492	-1.320083	0.000000	3.109623	-4.791660	5.792855	9.915867	0.173065	42.821539	12.247473	0.000000	-0.193114	0.355332	-1.699907	-0.358631	0.472591	-1.806151	-0.317266	0.863953	-1.806151	-0.220710	0.863953	-1.487419	-0.179325	0.724592	-1.381174	-0.110345	0.550409	-1.274930	-1.379391	4.019583	-9.454373	0.000000	0.000000	17.931983	-3.462782	-7.546301	3.199947	-13.655740	20.516452	64.333693	89.349588	-15.921898	1.591105	-0.500759	-10.299961	14.085760	61.800834	86.832272	-10.053806	-5.989099
1.433333	0.980928	-6.701677	106.413766	0.275209	0.923512	0.627293	2.311073	3.775592	-13.132957	14.119119	0.246425	34.111454	-3.362407	0.000000	3.109107	-4.659656	4.829321	9.554437	0.166756	42.790434	13.581532	0.000000	-0.206106	0.294873	-1.788194	-0.382759	0.392181	-1.899956	-0.338611	0.716954	-1.899956	-0.235558	0.716954	-1.564670	-0.191390	0.601305	-1.452908	-0.117769	0.456758	-1.341145	-1.472191	3.335662	-9.945398	0.000000	0.000000	17.589737	-4.155198	-7.998358	3.255574	-13.933511	20.837029	64.296910	89.606063	-16.686551	-0.610667	-0.461298	-10.591316	13.100909	61.382783	87.289187	-11.426975	-4.740605
1.450000	0.658023	-6.671491	106.695777	0.275726	0.923808	0.628934	2.270745	3.683143	-12.424642	13.907818	0.242737	33.732272	-5.170684	0.000000	2.972676	-4.453715	3.951226	9.127883	0.159312	42.681968	14.590969	0.000000	-0.220270	0.230773	-1.832240	-0.409063	0.306928	-1.946755	-0.361881	0.561102	-1.946755	-0.251746	0.561102	-1.603210	-0.204543	0.470593	-1.488695	-0.125862	0.357468	-1.374180	-1.573365	2.610552	-10.190370	0.000000	0.000000	17.116012	-4.799075	-8.415209	3.204768	-14.109085	20.918104	64.388873	89.630699	-17.009515	-2.114676	-0.408625	-10.871226	12.177852	60.901197	87.587571	-12.399348	-2.971126
1.466667	0.293477	-6.619022	106.823796	0.276333	0.924009	0.630144	2.139933	3.536047	-11.751263	13.666629	0.238528	33.475626	-6.567911	0.000000	2.743621	-4.198981	3.067957	8.697447	0.151799	42.551231	15.473931	0.000000	-0.237761	0.165304	-1.841098	-0.441546	0.219855	-1.956166	-0.390618	0.401921	-1.956166	-0.271737	0.401921	-1.610961	-0.220785	0.337089	-1.495892	-0.135857	0.256057	-1.380823	-1.698304	1.869957	-10.239634	0.000000	0.000000	16.561045	-5.344094	-8.828405	3.047082	-14.191702	20.780341	64.617274	89.450319	-16.955484	-3.063137	-0.365471	-11.219236	11.524750	60.434490	87.759139	-13.396651	-0.748405
1.483333	-0.093707	-6.546910	106.760034	0.277057	0.924120	0.630879	1.928933	3.362528	-10.928720	13.392548	0.233744	33.311501	-7.709540	0.000000	2.394036	-3.906347	2.422242	8.202551	0.143162	42.347330	15.935260	0.000000	-0.256942	0.101774	-1.816818	-0.477167	0.135360	-1.930370	-0.422130	0.247454	-1.930370	-0.293659	0.247454	-1.589716	-0.238596	0.207538	-1.476165	-0.146817	0.157648	-1.362614	-1.835312	1.151289	-10.104599	0.000000	0.000000	15.947491	-5.796695	-9.124053	2.773849	-14.165905	20.403198	65.006780	89.223692	-16.566296	-3.331330	-0.401749	-11.561808	10.796821	59.947397	87.873210	-13.819231	1.811451
1.500000	-0.493483	-6.475823	106.545831	0.277894	0.924125	0.631198	1.673700	3.164062	-10.052396	13.098134	0.228606	33.278737	-8.543542	0.000000	1.966998	-3.583371	2.043002	7.667160	0.133817	42.111148	16.019694	0.000000	-0.275516	0.039470	-1.767296	-0.511661	0.052495	-1.877752	-0.452645	0.095966	-1.877752	-0.314887	0.095966	-1.546384	-0.255844	0.080486	-1.435928	-0.157430	0.061138	-1.325472	-1.967984	0.446488	-9.829170	0.000000	0.000000	15.312228	-6.141756	-9.366844	2.377569	-14.011323	19.791442	65.497264	89.009317	-15.956809	-3.175682	-0.542444	-11.919160	9.994638	59.488974	87.972238	-13.825307	4.690213
1.516667	-0.880705	-6.397897	106.163457	0.278856	0.924047	0.631148	1.386714	2.966286	-9.076143	12.801100	0.223421	33.351628	-9.149654	0.000000	1.459732	-3.275180	1.706619	7.082713	0.123617	41.891916	16.002066	0.000000	-0.294200	-0.017733	-1.688425	-0.546359	-0.023585	-1.793952	-0.483341	-0.043116	-1.793952	-0.336241	-0.043116	-1.477372	-0.273194	-0.036161	-1.371845	-0.168106	-0.027468	-1.266319	-2.101442	-0.200599	-9.390514	0.000000	0.000000	14.694725	-6.407028	-9.518937	1.863150	-13.766241	18.952815	66.113635	88.975360	-15.213018	-2.464139	-0.761637	-12.269689	9.148855	58.946219	88.085978	-13.465449	7.405497
1.533333	-1.267417	-6.334417	105.648705	0.279965	0.923866	0.630818	1.102690	2.745662	-8.109876	12.524606	0.218596	33.541286	-9.511052	0.000000	0.905339	-2.950599	1.611791	6.455160	0.112664	41.670199	15.695612	0.000000	-0.310046	-0.074219	-1.590523	-0.575786	-0.098711	-1.689930	-0.509374	-0.180456	-1.689930	-0.354351	-0.180456	-1.391707	-0.287908	-0.151347	-1.292300	-0.177160	-0.114965	-1.192892	-2.214625	-0.839580	-8.846010	0.000000	0.000000	14.133956	-6.602366	-9.674525	1.273925	-13.433106	18.012400	66.728331	88.989124	-14.503686	-1.589144	-1.077191	-12.589178	8.073098	58.384396	88.249925	-12.622116	10.080077
1.550000	-1.634151	-6.277656	105.007691	0.281218	0.923619	0.630280	0.828488	2.538339	-7.001728	12.271471	0.214178	33.765669	-9.908467	0.000000	0.312787	-2.642733	1.600845	5.795010	0.101142	41.456888	15.269933	0.000000	-0.323729	-0.127055	-1.468663	-0.601197	-0.168984	-1.560454	-0.531854	-0.308922	-1.560454	-0.369990	-0.308922	-1.285080	-0.300615	-0.259091	-1.193289	-0.184979	-0.196809	-1.101497	-2.312364	-1.437275	-8.168263	0.000000	0.000000	13.638933	-6.775644	-9.837618	0.624051	-13.057357	17.001969	67.335609	88.987546	-13.863274	-0.493453	-1.394787	-12.892515	7.016598	57.669188	88.399072	-11.622202	12.196205
1.566667	-1.987422	-6.232800	104.257307	0.282533	0.923338	0.629623	0.572939	2.305335	-5.997576	12.061018	0.210504	34.023022	-10.121777	0.000000	-0.301651	-2.326791	1.771645	5.111220	0.089208	41.208342	14.558603	0.000000	-0.335280	-0.176059	-1.323503	-0.622649	-0.234158	-1.406222	-0.550832	-0.428069	-1.406222	-0.383192	-0.428069	-1.158065	-0.311341	-0.359019	-1.075346	-0.191579	-0.272715	-0.992627	-2.394872	-1.991611	-7.360926	0.000000	0.000000	13.240041	-6.922010	-9.976667	-0.081540	-12.661934	15.876022	67.965814	88.965607	-13.121822	1.036835	-1.662188	-13.147720	6.018422	56.775625	88.507992	-10.446547	13.745586
1.583333	-2.302174	-6.203164	103.500897	0.283899	0.923045	0.628913	0.345718	2.119034	-4.832198	11.864149	0.207068	34.185744	-10.655193	0.000000	-0.882524	-2.048861	1.957123	4.450670	0.077679	40.960112	13.884272	0.000000	-0.343511	-0.219963	-1.181534	-0.637934	-0.292551	-1.255380	-0.564354	-0.534819	-1.255380	-0.392599	-0.534819	-1.033843	-0.318984	-0.448549	-0.959997	-0.196282	-0.340723	-0.886151	-2.453664	-2.488271	-6.571339	0.000000	0.000000	12.915580	-7.112684	-10.123533	-0.772605	-12.243774	14.795537	68.468292	88.921486	-12.396676	2.573182	-1.860682	-13.380428	5.134436	55.672895	88.598389	-9.224370	14.459337
1.600000	-2.576360	-6.199293	102.727543	0.285238	0.922762	0.628219	0.159515	1.940149	-3.779794	11.697697	0.204163	34.276844	-11.104405	0.000000	-1.408389	-1.793872	2.163182	3.837677	0.066980	40.691310	13.140998	0.000000	-0.348246	-0.257039	-1.033385	-0.646728	-0.341862	-1.097971	-0.572134	-0.624964	-1.097971	-0.398010	-0.624964	-0.904211	-0.323381	-0.524154	-0.839625	-0.198988	-0.398153	-0.775038	-2.487487	-2.907675	-5.747375	0.000000	0.000000	12.698253	-7.301778	-10.242735	-1.482568	-11.835474	13.667716	68.955512	88.845206	-11.569050	4.423121	-1.925118	-13.578025	4.487926	54.335425	88.630391	-7.986645	14.352948
1.616667	-2.776938	-6.214909	102.077486	0.286423	0.922524	0.627592	0.004902	1.819106	-2.893419	11.521073	0.201081	34.234699	-11.602784	0.000000	-1.836693	-1.602407	2.402797	3.306884	0.057716	40.425054	12.483128	0.000000	-0.349111	-0.283072	-0.922316	-0.648334	-0.376485	-0.979961	-0.573555	-0.688260	-0.979961	-0.398999	-0.688260	-0.807027	-0.324185	-0.577240	-0.749382	-0.199482	-0.438478	-0.691737	-2.493666	-3.202163	-5.129647	0.000000	0.000000	12.578909	-7.556630	-10.235103	-2.095795	-11.457959	12.689974	69.308487	88.741137	-10.567284	6.388307	-1.935373	-13.724136	3.957489	52.859581	88.634010	-6.795014	13.618088
1.633333	-2.903333	-6.256999	101.522928	0.287490	0.922341	0.627053	-0.099879	1.753925	-2.145332	11.347657	0.198054	34.074243	-12.093467	0.000000	-2.149988	-1.478220	2.564656	2.891282	0.050462	40.181505	11.967900	0.000000	-0.345775	-0.298467	-0.838884	-0.642138	-0.396961	-0.891314	-0.568074	-0.725692	-0.891314	-0.395186	-0.725692	-0.734024	-0.321087	-0.608634	-0.681593	-0.197576	-0.462325	-0.629163	-2.469835	-3.376316	-4.665621	0.000000	0.000000	12.564456	-7.805584	-10.083775	-2.614021	-11.126330	11.887904	69.554969	88.594406	-9.543699	8.478034	-1.877779	-13.826905	3.610836	51.269110	88.623020	-5.663754	12.362336
